# xmcd
#
# Track frame offsets:
#  150
#  21764
#  36518
#  56188
#  69194
#  87464
#  106192
#  117792
#  135172
#  142183
#  170862
#  187396
#
# Disc length: 2704 seconds
#
# Revision: 0
# Processed by: cddbd v1.4PL0 Copyright (c) Steve Scherf et al.
# Submitted via: AltoMP3_Maker 3.0
#
DISCID=b20a8e0c
DTITLE=Eddy Wilson and Friends - Still Got The Blues
DYEAR=1900
DGENRE=
TTITLE0=Still Got The Blues (Moore)
TTITLE1=Some Kind Of Wonderful (Ellison)
TTITLE2=Pretty Woman (Moore)
TTITLE3=I've Got The Blues For You (Peep)
TTITLE4=Peaches And Diesel (Clapton/Galuten)
TTITLE5=When Love Comes To Town (Bono/U2)
TTITLE6=Rollin' And Tumblin' (Waters)
TTITLE7=Crossroads (Johnson/arr. Clapton)
TTITLE8=Jigsaw Puzzle Blues (Kirwan)
TTITLE9=Big Log (Plant/Blunt/Woodroffe)
TTITLE10=I Need All Your Lovin' (Catmusic)
TTITLE11=Don't Leave Me, baby (Wilsons)
EXTD=
EXTT0=
EXTT1=
EXTT2=
EXTT3=
EXTT4=
EXTT5=
EXTT6=
EXTT7=
EXTT8=
EXTT9=
EXTT10=
EXTT11=
PLAYORDER=
